# xmcd CD database file
#
# Track frame offsets:
#	150
#	10317
#	27090
#
# Disc length: 709 seconds
#
# Revision: 2
# Processed by: cddbd v1.5.2PL0 Copyright (c) Steve Scherf et al.
# Submitted via: CDex 1.70beta2
#
DISCID=1702c303
DTITLE=Los Planetas - Himno Generacional #83
DYEAR=1995
DGENRE=Alternative
TTITLE0=Himno Generacional #83
TTITLE1=Prefiero Bollitos
TTITLE2=Manchas Solares
EXTD=YEAR: 1995
EXTT0=
EXTT1=
EXTT2=
PLAYORDER=
